<?xml version="1.0" encoding="utf-8"?>
<!-- Generator: Adobe Illustrator 26.1.0, SVG Export Plug-In . SVG Version: 6.00 Build 0)  -->
<svg version="1.1" id="Layer_1" xmlns="http://www.w3.org/2000/svg" x="0px" y="0px"
	 viewBox="0 0 264 280" style="enable-background:new 0 0 264 280;" xml:space="preserve">
<style type="text/css">
	.st0{fill-rule:evenodd;clip-rule:evenodd;fill:#E6E6E6;}
	.st1{filter:url(#Adobe_OpacityMaskFilter);}
	.st2{fill-rule:evenodd;clip-rule:evenodd;fill:#FFFFFF;}
	.st3{mask:url(#react-mask-4_00000003096251890647503270000011179190222735830447_);}
	.st4{fill-rule:evenodd;clip-rule:evenodd;fill:#65C9FF;}
	.st5{filter:url(#Adobe_OpacityMaskFilter_00000035528170640657041740000017896791068883672969_);}
	.st6{mask:url(#react-mask-5_00000028324193956171254050000017084849038633366955_);}
	.st7{fill-rule:evenodd;clip-rule:evenodd;fill:#D0C6AC;}
	.st8{filter:url(#Adobe_OpacityMaskFilter_00000033362010924935840420000013192536282788086161_);}
	.st9{mask:url(#react-mask-6_00000113350759598605179610000016528804125650441613_);}
	.st10{fill-rule:evenodd;clip-rule:evenodd;fill:#EDB98A;}
	.st11{filter:url(#Adobe_OpacityMaskFilter_00000029764462305463463350000000981916533058685573_);}
	
		.st12{mask:url(#react-mask-6_00000129165083507322590360000006992400002922589602_);fill-rule:evenodd;clip-rule:evenodd;fill-opacity:0.1;}
	.st13{filter:url(#Adobe_OpacityMaskFilter_00000091013025386854012430000017789505568886572213_);}
	.st14{mask:url(#react-mask-122_00000172412059502476977470000017748851563623587765_);}
	.st15{fill-rule:evenodd;clip-rule:evenodd;fill:#FF5C5C;}
	.st16{fill-opacity:0.6;}
	.st17{fill-rule:evenodd;clip-rule:evenodd;fill-opacity:0.16;}
	.st18{fill-rule:evenodd;clip-rule:evenodd;fill-opacity:0.6;}
	.st19{filter:url(#Adobe_OpacityMaskFilter_00000146478324978965087950000003972197002065696660_);}
	.st20{mask:url(#react-mask-197_00000088098727990745392500000014526863405919832760_);}
	.st21{fill-rule:evenodd;clip-rule:evenodd;fill:#944F23;}
	.st22{filter:url(#Adobe_OpacityMaskFilter_00000063635462567786899070000006828758441930538636_);}
	.st23{mask:url(#react-mask-198_00000135673536215357807700000005730027284601201085_);}
	.st24{fill-rule:evenodd;clip-rule:evenodd;fill:#4A312C;}
	.st25{opacity:0.44;}
	.st26{fill-rule:evenodd;clip-rule:evenodd;fill:#FFFFFF;fill-opacity:0.16;}
	.st27{fill-rule:evenodd;clip-rule:evenodd;fill:#FFBB40;}
	.st28{fill-rule:evenodd;clip-rule:evenodd;}
	.st29{fill-rule:evenodd;clip-rule:evenodd;fill:#F4F4F4;}
</style>
<desc>Created with getavataaars.com</desc>
<g id="Avataaar_00000065796215979367182250000005491246038490231988_">
	<g id="Avataaar_x2F_Circle" transform="translate(-825.000000, -1100.000000)">
		<g transform="translate(825.000000, 1100.000000)">
			<g id="Circle" transform="translate(12.000000, 40.000000)">
				<g id="Circle-Background">
					<circle id="react-path-1_00000103960114501456583410000006142591543909115817_" class="st0" cx="120" cy="120" r="120"/>
				</g>
				<defs>
					<filter id="Adobe_OpacityMaskFilter" filterUnits="userSpaceOnUse" x="0" y="0" width="240" height="240">
						<feColorMatrix  type="matrix" values="1 0 0 0 0  0 1 0 0 0  0 0 1 0 0  0 0 0 1 0"/>
					</filter>
				</defs>
				
					<mask maskUnits="userSpaceOnUse" x="0" y="0" width="240" height="240" id="react-mask-4_00000003096251890647503270000011179190222735830447_">
					<g class="st1">
						<circle id="react-path-1_00000178920435230355788560000011915918682980030872_" class="st2" cx="120" cy="120" r="120"/>
					</g>
				</mask>
				<g id="Color_x2F_Palette_x2F_Blue-01" class="st3">
					<rect id="_xD83D__xDD8D_Color" class="st4" width="240" height="240"/>
				</g>
			</g>
			<g id="Mask">
			</g>
			<defs>
				
					<filter id="Adobe_OpacityMaskFilter_00000029742764454656364940000001495674316914422714_" filterUnits="userSpaceOnUse" x="-1" y="0" width="297" height="316">
					<feColorMatrix  type="matrix" values="1 0 0 0 0  0 1 0 0 0  0 0 1 0 0  0 0 0 1 0"/>
				</filter>
			</defs>
			
				<mask maskUnits="userSpaceOnUse" x="-1" y="0" width="297" height="316" id="react-mask-5_00000028324193956171254050000017084849038633366955_">
				<g style="filter:url(#Adobe_OpacityMaskFilter_00000029742764454656364940000001495674316914422714_);">
					<path id="react-path-2_00000098219618304863116370000006967832457896736643_" class="st2" d="M12,160c0,66.3,53.7,120,120,120
						s120-53.7,120-120h12V0H0v160H12z"/>
				</g>
			</mask>
			<g id="Avataaar" class="st6">
				<g id="Body" transform="translate(32.000000, 36.000000)">
					<g>
						<path id="react-path-3_00000108987819984865407910000015250022326970541698_" class="st7" d="M124,144.6V163h4l0,0
							c39.8,0,72,32.2,72,72v9H0v-9c0-39.8,32.2-72,72-72l0,0h4v-18.4c-17.2-8.2-29.6-24.9-31.7-44.7C38.5,99.1,34,94.1,34,88V74
							c0-5.9,4.3-10.9,10-11.8V56l0,0c0-30.9,25.1-56,56-56l0,0l0,0c30.9,0,56,25.1,56,56v6.2c5.7,1,10,5.9,10,11.8v14
							c0,6.1-4.5,11.1-10.3,11.9C153.6,119.7,141.2,136.4,124,144.6z"/>
					</g>
					<defs>
						
							<filter id="Adobe_OpacityMaskFilter_00000118366057740259766260000001192834568177812639_" filterUnits="userSpaceOnUse" x="0" y="0" width="264" height="280">
							<feColorMatrix  type="matrix" values="1 0 0 0 0  0 1 0 0 0  0 0 1 0 0  0 0 0 1 0"/>
						</filter>
					</defs>
					
						<mask maskUnits="userSpaceOnUse" x="0" y="0" width="264" height="280" id="react-mask-6_00000113350759598605179610000016528804125650441613_">
						<g style="filter:url(#Adobe_OpacityMaskFilter_00000118366057740259766260000001192834568177812639_);">
							<path id="react-path-3_00000154418534817781539440000002013884556085523850_" class="st2" d="M124,144.6V163h4l0,0
								c39.8,0,72,32.2,72,72v9H0v-9c0-39.8,32.2-72,72-72l0,0h4v-18.4c-17.2-8.2-29.6-24.9-31.7-44.7C38.5,99.1,34,94.1,34,88V74
								c0-5.9,4.3-10.9,10-11.8V56l0,0c0-30.9,25.1-56,56-56l0,0l0,0c30.9,0,56,25.1,56,56v6.2c5.7,1,10,5.9,10,11.8v14
								c0,6.1-4.5,11.1-10.3,11.9C153.6,119.7,141.2,136.4,124,144.6z"/>
						</g>
					</mask>
					<g id="Skin_x2F__xD83D__xDC76__xD83C__xDFFD_-03-Brown" class="st9">
						<g id="Color" transform="translate(0.000000, 0.000000)">
							<rect class="st10" width="264" height="280"/>
						</g>
					</g>
					<defs>
						
							<filter id="Adobe_OpacityMaskFilter_00000156589576808393744520000011346450968514782091_" filterUnits="userSpaceOnUse" x="44" y="79" width="112" height="79">
							<feColorMatrix  type="matrix" values="1 0 0 0 0  0 1 0 0 0  0 0 1 0 0  0 0 0 1 0"/>
						</filter>
					</defs>
					
						<mask maskUnits="userSpaceOnUse" x="44" y="79" width="112" height="79" id="react-mask-6_00000129165083507322590360000006992400002922589602_">
						<g style="filter:url(#Adobe_OpacityMaskFilter_00000156589576808393744520000011346450968514782091_);">
							<path id="react-path-3_00000161603119153266277120000007040886030239883187_" class="st2" d="M124,144.6V163h4l0,0
								c39.8,0,72,32.2,72,72v9H0v-9c0-39.8,32.2-72,72-72l0,0h4v-18.4c-17.2-8.2-29.6-24.9-31.7-44.7C38.5,99.1,34,94.1,34,88V74
								c0-5.9,4.3-10.9,10-11.8V56l0,0c0-30.9,25.1-56,56-56l0,0l0,0c30.9,0,56,25.1,56,56v6.2c5.7,1,10,5.9,10,11.8v14
								c0,6.1-4.5,11.1-10.3,11.9C153.6,119.7,141.2,136.4,124,144.6z"/>
						</g>
					</mask>
					<path id="Neck-Shadow" class="st12" d="M156,79v23c0,30.9-25.1,56-56,56s-56-25.1-56-56V79v15c0,30.9,25.1,56,56,56
						s56-25.1,56-56V79z"/>
				</g>
				<g id="Clothing_x2F_Shirt-Scoop-Neck" transform="translate(0.000000, 170.000000)">
					<g id="Clothes">
						<path id="react-path-121_00000147938844921941004620000017508057145631639482_" class="st0" d="M181.5,32.3
							c29.2,9.2,50.5,36.5,50.5,68.7v8.9H32v-8.9c0-32.7,21.7-60.2,51.5-69c-0.4,1.4-0.5,2.9-0.5,4.3c0,16.3,22.2,29.5,49.5,29.5
							S182,52.6,182,36.3C182,35,181.8,33.6,181.5,32.3z"/>
					</g>
					<defs>
						
							<filter id="Adobe_OpacityMaskFilter_00000037682981285449784060000004068554518449230212_" filterUnits="userSpaceOnUse" x="0" y="0" width="264" height="110">
							<feColorMatrix  type="matrix" values="1 0 0 0 0  0 1 0 0 0  0 0 1 0 0  0 0 0 1 0"/>
						</filter>
					</defs>
					
						<mask maskUnits="userSpaceOnUse" x="0" y="0" width="264" height="110" id="react-mask-122_00000172412059502476977470000017748851563623587765_">
						<g style="filter:url(#Adobe_OpacityMaskFilter_00000037682981285449784060000004068554518449230212_);">
							<path id="react-path-121_00000038400668200180361180000015046400006583990177_" class="st2" d="M181.5,32.3
								c29.2,9.2,50.5,36.5,50.5,68.7v8.9H32v-8.9c0-32.7,21.7-60.2,51.5-69c-0.4,1.4-0.5,2.9-0.5,4.3c0,16.3,22.2,29.5,49.5,29.5
								S182,52.6,182,36.3C182,35,181.8,33.6,181.5,32.3z"/>
						</g>
					</mask>
					<g id="Color_x2F_Palette_x2F_Gray-01" class="st14">
						<rect id="_xD83D__xDD8D_Color_00000062193675482285323770000005681103064017593234_" class="st15" width="264" height="110"/>
					</g>
				</g>
				<g id="Face" transform="translate(76.000000, 82.000000)">
					<g id="Mouth_x2F_Twinkle" transform="translate(2.000000, 52.000000)">
						<path id="Mouth" class="st16" d="M40,16c0,5.4,6.2,9,14,9s14-3.6,14-9c0-1.1-0.9-2-2-2c-1.3,0-1.9,0.9-2,2
							c-1.2,2.9-4.3,4.7-10,5c-5.7-0.3-8.8-2.1-10-5c-0.1-1.1-0.7-2-2-2C40.9,14,40,14.9,40,16z"/>
					</g>
					<g id="Nose_x2F_Default" transform="translate(28.000000, 40.000000)">
						<path id="Nose" class="st17" d="M16,8c0,4.4,5.4,8,12,8l0,0c6.6,0,12-3.6,12-8"/>
					</g>
					<g id="Eyes_x2F_Default-_xD83D__xDE00_" transform="translate(0.000000, 8.000000)">
						<circle id="Eye" class="st18" cx="30" cy="22" r="6"/>
						<circle id="Eye_00000104689111957679183280000010810400364378820509_" class="st18" cx="82" cy="22" r="6"/>
					</g>
					<g id="Eyebrow_x2F_Outline_x2F_Default">
						<g id="I-Browse" transform="translate(12.000000, 6.000000)">
							<path id="Eyebrow" class="st16" d="M3.6,11.2c3.9-5.5,14.6-8.6,23.9-6.3c1.1,0.3,2.2-0.4,2.4-1.5c0.3-1.1-0.4-2.2-1.5-2.4
								C17.7-1.7,5.3,1.9,0.4,8.8c-0.6,0.9-0.4,2.1,0.5,2.8S3,12.1,3.6,11.2z"/>
							<path id="Eyebrow_00000036236747193185666640000014112446169646149521_" class="st16" d="M84.4,11.2
								c-3.9-5.5-14.6-8.6-23.9-6.3c-1.1,0.3-2.2-0.4-2.4-1.5s0.4-2.2,1.5-2.4c10.7-2.6,23.2,0.9,28.1,7.9c0.6,0.9,0.4,2.1-0.5,2.8
								S85,12.1,84.4,11.2z"/>
						</g>
					</g>
				</g>
				<g id="Top_00000042702996525819347050000011412899998345953951_">
					<g id="Mask_00000170268065956053582050000007712320612183763609_">
					</g>
					<defs>
						
							<filter id="Adobe_OpacityMaskFilter_00000017503489962419804090000016029462972137931922_" filterUnits="userSpaceOnUse" x="-1" y="0" width="264" height="280">
							<feColorMatrix  type="matrix" values="1 0 0 0 0  0 1 0 0 0  0 0 1 0 0  0 0 0 1 0"/>
						</filter>
					</defs>
					
						<mask maskUnits="userSpaceOnUse" x="-1" y="0" width="264" height="280" id="react-mask-197_00000088098727990745392500000014526863405919832760_">
						<g style="filter:url(#Adobe_OpacityMaskFilter_00000017503489962419804090000016029462972137931922_);">
							<rect id="react-path-199_00000123398788469858549340000005595904462024851132_" class="st2" width="264" height="280"/>
						</g>
					</mask>
					<g id="Top_x2F_Long-Hair_x2F_Long-but-not-too-long" class="st20">
						<g transform="translate(-1.000000, 0.000000)">
							<g id="Behind">
								<g id="Combined-Shape">
									<path id="react-path-200_00000050629283218364261550000014226500671012055448_" class="st21" d="M59,102.3
										c0,16.6,0,43.1,0,79.7c0,4.4,3.6,8,8,8h42v-9.4c-17.5-8.3-30-25.5-31.8-45.7C71.4,134,67,129,67,123v-13
										c0-3.5,1.5-6.6,3.9-8.8c11.5-2.6,24.1-7.5,36.5-14.7c12.1-7,22.5-15.2,30.5-23.7c-3.4,7.9-7.6,14.8-12.4,20.8
										c12.7-5.5,21.3-14.4,25.9-26.6c0.4,0.9,0.8,1.8,1.2,2.8c10.3,23,27.9,39.4,45.8,44.7c0.5,2.1,0.8,4.1,0.8,5.6v13
										c0,6-4.4,11-10.2,11.9c-1.7,20.2-14.3,37.4-31.8,45.7v9.4h18c17.7,0,32-14.3,32-32c0-24.1,0-42.1,0-54.1c0-0.1,0-0.2,0-0.3
										c-0.1-12.3-0.3-19.4-0.6-21.4C201.6,46,170.6,18,133,18c-36.1,0-66.1,25.8-73,60c-5.5,0-10,5.6-10,12.5
										c0,4.6,1.7,8.6,4.9,10.8C55.8,101.9,57.3,102.2,59,102.3z"/>
								</g>
								<defs>

										<filter id="Adobe_OpacityMaskFilter_00000081644463872814128900000009197140874364937887_" filterUnits="userSpaceOnUse" x="0" y="0" width="264" height="280">
										<feColorMatrix  type="matrix" values="1 0 0 0 0  0 1 0 0 0  0 0 1 0 0  0 0 0 1 0"/>
									</filter>
								</defs>

									<mask maskUnits="userSpaceOnUse" x="0" y="0" width="264" height="280" id="react-mask-198_00000135673536215357807700000005730027284601201085_">
									<g style="filter:url(#Adobe_OpacityMaskFilter_00000081644463872814128900000009197140874364937887_);">
										<path id="react-path-200_00000124843994399149395400000004957804802784655273_" class="st2" d="M59,102.3
											c0,16.6,0,43.1,0,79.7c0,4.4,3.6,8,8,8h42v-9.4c-17.5-8.3-30-25.5-31.8-45.7C71.4,134,67,129,67,123v-13
											c0-3.5,1.5-6.6,3.9-8.8c11.5-2.6,24.1-7.5,36.5-14.7c12.1-7,22.5-15.2,30.5-23.7c-3.4,7.9-7.6,14.8-12.4,20.8
											c12.7-5.5,21.3-14.4,25.9-26.6c0.4,0.9,0.8,1.8,1.2,2.8c10.3,23,27.9,39.4,45.8,44.7c0.5,2.1,0.8,4.1,0.8,5.6v13
											c0,6-4.4,11-10.2,11.9c-1.7,20.2-14.3,37.4-31.8,45.7v9.4h18c17.7,0,32-14.3,32-32c0-24.1,0-42.1,0-54.1
											c0-0.1,0-0.2,0-0.3c-0.1-12.3-0.3-19.4-0.6-21.4C201.6,46,170.6,18,133,18c-36.1,0-66.1,25.8-73,60c-5.5,0-10,5.6-10,12.5
											c0,4.6,1.7,8.6,4.9,10.8C55.8,101.9,57.3,102.2,59,102.3z"/>
									</g>
								</mask>
								<g id="Skin_x2F__xD83D__xDC76__xD83C__xDFFD_-03-Brown_00000052084723029480495050000008571554975005891731_" class="st23">
									<g id="Color_00000124129342002575111740000008694816449039945622_" transform="translate(0.000000, 0.000000) ">
										<rect class="st24" width="264" height="280"/>
									</g>
								</g>
							</g>
							<g id="Top" transform="translate(50.000000, 18.000000)" class="st25">
								<path id="Combined-Shape_00000041254242863090630380000000900076954105923201_" class="st26" d="M11.9,84.8
									c13.8-1.8,29.8-7.2,45.4-16.3c12.1-7,22.5-15.2,30.5-23.7c-3.4,7.9-7.6,14.8-12.4,20.8C88,60,96.7,51.1,101.3,38.9
									c0.4,0.9,0.8,1.8,1.2,2.8c11.9,26.8,33.9,44.5,54.6,46.5l0,0V74c0-40.9-33.1-74-74-74C46.9,0,16.9,25.8,10.3,60
									c-0.1,0-0.2,0-0.3,0C4.5,60,0,65.6,0,72.5C0,79,3.9,84.3,9,84.9v0.2c0.3,0,0.6-0.1,1-0.1c0,0,0,0,0,0
									C10.6,85,11.3,84.9,11.9,84.8z"/>
							</g>
						</g>
					</g>
				</g>
			</g>
		</g>
	</g>
</g>
<g id="Clothing_x2F_Shirt-Crew-Neck" transform="translate(0.000000, 170.000000)">
	<path id="react-path-64_00000071555978473832641790000002779238681584771489_" class="st15" d="M132.8-164.9L132.8-164.9
		c36.5,0,66,24.4,66,54.5v4.1h-132v-4.1C66.8-140.5,96.3-164.9,132.8-164.9z"/>
</g>
<g id="Layer_4">
	<polyline class="st27" points="60.2,58.4 68.9,17.6 82.2,34.1 108.5,8.5 132.4,28.8 156.4,8.5 181.9,32.4 194.4,16.7 204.6,58.4
		60.2,58.4 	"/>
</g>
<g id="Layer_3">
	<g id="hat-front_00000038404972276654071500000007814822631956249762_">
		<g>
			<path id="react-path-65_00000112604342975070568350000008431800845920269231_" class="st28" d="M59.2,57.7
				c17.7-7.4,42.2-11.1,73.2-11.1s55.4,3.7,73.1,11.1l0,0c2.3,1,3.7,2.5,3.7,4.1v19.4c0,1.4-2,2.5-4.5,2.5c-0.9,0-1.7-0.1-2.3-0.4
				c-18.5-6.7-41.5-10.1-69.1-10.1c-27.7,0-51.4,3.4-70.9,10.2l0,0c-2.1,0.7-4.8,0.3-6.1-0.8c-0.4-0.4-0.7-0.8-0.7-1.3V61.8
				C55.6,60.2,56.9,58.6,59.2,57.7z"/>
		</g>
		<g>
			<path id="react-path-65_00000010271454137036500080000000292508197403659933_" class="st29" d="M59.2,57.7
				c17.7-7.4,42.2-11.1,73.2-11.1s55.4,3.7,73.1,11.1l0,0c2.3,1,3.7,2.5,3.7,4.1v19.4c0,1.4-2,2.5-4.5,2.5c-0.9,0-1.7-0.1-2.3-0.4
				c-18.5-6.7-41.5-10.1-69.1-10.1c-27.7,0-51.4,3.4-70.9,10.2l0,0c-2.1,0.7-4.8,0.3-6.1-0.8c-0.4-0.4-0.7-0.8-0.7-1.3V61.8
				C55.6,60.2,56.9,58.6,59.2,57.7z"/>
		</g>
	</g>
</g>
</svg>
